<?xml version="1.0" encoding="utf-8"?>
<!-- Generator: Adobe Illustrator 16.0.0, SVG Export Plug-In . SVG Version: 6.00 Build 0)  -->
<!DOCTYPE svg PUBLIC "-//W3C//DTD SVG 1.1//EN" "http://www.w3.org/Graphics/SVG/1.1/DTD/svg11.dtd">
<svg version="1.1" id="Layer_1" xmlns="http://www.w3.org/2000/svg" xmlns:xlink="http://www.w3.org/1999/xlink" x="0px" y="0px"
	 width="880.267px" height="303.945px" viewBox="0 0 880.267 303.945" enable-background="new 0 0 880.267 303.945"
	 xml:space="preserve">
<path fill="#010101" d="M120.266,69.019c0,8.23-1.4,15.663-4.199,22.298c-2.801,6.635-6.412,12.164-10.834,16.587
	c-4.424,4.424-9.155,7.755-14.194,9.994c-10.638,4.703-23.656,7.055-39.052,7.055H0v-7.727c4.815,0,8.454-0.462,10.918-1.386
	c2.463-0.924,4.074-2.309,4.829-4.157c0.756-1.848,1.134-4.479,1.134-7.895v-71.89c0-4.926-1.008-8.399-3.023-10.414
	C11.842,19.468,7.223,18.459,0,18.459v-7.894l24.44-0.504c0.84,0,4.254-0.055,10.246-0.168c5.99-0.111,9.461-0.168,10.414-0.168
	c9.35,0,17.286,0.504,23.809,1.512c6.522,1.007,12.5,2.632,17.931,4.871c4.983,2.015,9.574,4.829,13.774,8.44
	c4.199,3.612,7.739,7.727,10.624,12.346c2.882,4.619,5.108,9.645,6.676,15.075C119.481,57.402,120.266,63.084,120.266,69.019
	 M93.055,68.515c0-11.813-2.254-21.71-6.761-29.688C81.786,30.848,75.67,25.32,67.944,22.24c-3.36-1.344-6.929-2.197-10.708-2.562
	c-3.78-0.363-9.197-0.546-16.251-0.546v80.037c0,4.592,0.223,7.937,0.672,10.036c0.447,2.1,1.763,3.696,3.947,4.788
	c2.183,1.091,5.57,1.637,10.162,1.637c13.605,0,23.222-4.758,28.849-14.277C90.242,91.834,93.055,80.89,93.055,68.515"/>
<path fill="#010101" d="M178.047,124.953h-45.603v-7.727h2.435c3.247,0,5.613-0.447,7.097-1.344
	c1.483-0.896,2.394-2.155,2.729-3.779c0.336-1.623,0.504-4.002,0.504-7.139V80.021c0-3.471-0.21-5.934-0.63-7.391
	c-0.419-1.455-1.511-2.519-3.275-3.191c-1.764-0.672-4.718-1.035-8.86-1.092v-7.726l34.433-7.223v51.566
	c0,4.703,0.588,7.924,1.764,9.659c1.176,1.736,4.311,2.603,9.406,2.603V124.953z M168.557,20.56c0,3.359-1.19,6.229-3.569,8.608
	c-2.381,2.381-5.249,3.57-8.609,3.57c-3.304,0-6.173-1.218-8.608-3.654c-2.436-2.435-3.653-5.276-3.653-8.524
	c0-3.359,1.203-6.242,3.611-8.65c2.407-2.407,5.291-3.612,8.65-3.612c3.415,0,6.299,1.176,8.651,3.528
	C167.381,14.177,168.557,17.089,168.557,20.56"/>
<path fill="#010101" d="M262.448,104.964c0,4.816-1.442,8.931-4.325,12.346c-2.884,3.416-6.832,6.005-11.842,7.768
	c-5.012,1.764-10.792,2.646-17.343,2.646c-4.424,0-8.875-0.435-13.353-1.302c-4.48-0.869-8.399-2.169-11.758-3.905l-3.275,4.703
	h-6.551l-0.84-21.836h7.055c1.231,3.752,4.058,7.125,8.482,10.12c4.422,2.996,10.834,4.493,19.232,4.493
	c2.127,0,4.423-0.153,6.887-0.462c2.463-0.307,4.829-1.161,7.097-2.562c2.267-1.399,3.401-3.555,3.401-6.467
	c0-2.52-1.162-4.353-3.485-5.501c-2.324-1.147-6.677-2.533-13.06-4.157c-7.726-1.959-14.054-3.822-18.98-5.585
	c-4.928-1.764-9.099-4.297-12.514-7.601c-3.416-3.303-5.123-7.558-5.123-12.765c0-6.606,3.037-11.842,9.112-15.705
	c6.075-3.864,14.039-5.795,23.894-5.795c6.158,0,11.086,0.503,14.781,1.511c3.696,1.008,6.803,2.1,9.322,3.276l2.016-4.284h6.719
	v19.485h-6.887c-0.617-2.295-2.016-4.395-4.199-6.299c-2.184-1.903-5.081-3.373-8.692-4.409c-3.612-1.035-7.798-1.554-12.556-1.554
	c-3.92,0-7.825,0.42-11.716,1.26c-3.892,0.84-5.837,2.828-5.837,5.963c0,1.288,0.378,2.351,1.134,3.191
	c0.756,0.84,2.058,1.625,3.905,2.352c1.848,0.729,5.094,1.679,9.742,2.855c4.647,1.176,7.418,1.877,8.315,2.1
	c9.125,2.296,16.614,5.123,22.466,8.482C259.522,90.687,262.448,96.566,262.448,104.964"/>
<path fill="#010101" d="M349.849,66.667c0,3.248-0.995,5.81-2.981,7.685c-1.989,1.876-4.326,2.813-7.013,2.813
	c-3.192,0-5.992-1.567-8.399-4.703c-1.12-1.399-2.044-2.407-2.771-3.024c-0.729-0.615-1.764-0.923-3.107-0.923
	c-4.368,0-7.769,2.366-10.205,7.096c-2.435,4.732-3.653,9.645-3.653,14.74v14.613c0,4.703,0.601,7.923,1.806,9.658
	c1.203,1.736,4.38,2.604,9.532,2.604h4.451v7.726h-52.154v-7.726h4.367c4.703,0,7.586-0.895,8.65-2.688
	c1.063-1.791,1.596-4.982,1.596-9.574V80.44c0-3.75-0.378-6.438-1.134-8.062c-0.756-1.623-2.114-2.701-4.073-3.233
	c-1.96-0.532-5.096-0.798-9.406-0.798V60.62l32.754-7.223c0.84,2.856,1.623,8.932,2.351,18.225c1.567-3.303,3.625-6.326,6.173-9.07
	c2.547-2.743,5.403-4.955,8.567-6.635c3.162-1.68,6.396-2.52,9.7-2.52c4.59,0,8.23,1.289,10.918,3.864
	C348.505,59.837,349.849,62.972,349.849,66.667"/>
<path fill="#010101" d="M454.326,124.448c-1.625,0.113-4.451,0.294-8.482,0.546s-8.554,0.615-13.563,1.092
	c-5.012,0.475-9.028,1.021-12.052,1.637v-12.261c-7.222,8.287-15.873,12.429-25.951,12.429c-7.335,0-12.765-1.568-16.293-4.703
	c-3.527-3.135-5.711-6.593-6.551-10.372c-0.839-3.779-1.259-7.824-1.259-12.136V75.905c0-3.303-0.197-5.724-0.588-7.265
	c-0.393-1.539-1.428-2.714-3.108-3.527c-1.679-0.811-4.451-1.218-8.314-1.218v-7.726h33.678v46.275
	c0,9.519,3.666,14.277,11.002,14.277c4.199,0,7.753-1.497,10.666-4.493c2.91-2.994,5.15-5.864,6.718-8.608V75.905
	c0-3.471-0.21-5.963-0.63-7.475c-0.419-1.511-1.498-2.645-3.233-3.401c-1.736-0.756-4.619-1.134-8.65-1.134v-7.726h34.181v50.558
	c0,2.633,0.252,4.592,0.756,5.879c0.504,1.289,1.65,2.282,3.443,2.982c1.791,0.7,4.535,1.078,8.23,1.133V124.448z"/>
<path fill="#010101" d="M554.771,89.343c0,6.887-1.61,13.284-4.829,19.19c-3.221,5.908-7.672,10.582-13.354,14.026
	c-5.685,3.443-12.052,5.165-19.106,5.165c-8.848,0-16.545-3.108-23.096-9.323v26.875c0,3.192,0.21,5.585,0.63,7.181
	s1.371,2.799,2.855,3.611c1.482,0.811,3.765,1.218,6.845,1.218h4.619v7.728h-48.795v-7.728c3.807,0,6.551-0.323,8.23-0.966
	c1.68-0.644,2.757-1.75,3.233-3.317c0.475-1.568,0.714-4.144,0.714-7.727V79.517c0-3.247-0.239-5.598-0.714-7.055
	c-0.477-1.455-1.541-2.505-3.191-3.149c-1.652-0.643-4.41-0.966-8.272-0.966V60.62l32.67-7.222c0.672,2.24,1.062,5.794,1.176,10.666
	c3.695-3.696,7.517-6.396,11.464-8.105c3.947-1.707,8.495-2.561,13.647-2.561c5.598,0,10.609,1.007,15.033,3.023
	c4.422,2.016,8.117,4.718,11.086,8.104c2.967,3.389,5.234,7.252,6.803,11.59C553.986,80.455,554.771,84.864,554.771,89.343
	 M531.591,88.503c0-17.188-6.02-25.783-18.057-25.783c-3.92,0-7.517,1.134-10.792,3.401c-3.275,2.268-6.062,5.026-8.356,8.273
	v33.173c2.184,3.305,5.024,5.936,8.524,7.895c3.498,1.96,7.097,2.939,10.792,2.939C525.628,118.401,531.591,108.436,531.591,88.503"
	/>
<path fill="#010101" d="M622.882,110.003c-3.023,6.328-6.551,10.863-10.582,13.605c-4.031,2.743-8.764,4.116-14.193,4.116
	c-6.607,0-11.479-1.344-14.613-4.032c-3.137-2.687-5.068-5.696-5.795-9.028c-0.729-3.33-1.092-7.068-1.092-11.212V63.896h-12.682
	v-7.727c5.318,0,9.937-1.008,13.857-3.023c3.918-2.016,7.013-4.731,9.28-8.147c2.268-3.414,3.708-7.082,4.325-11.002h6.887v22.172
	h23.768v7.727h-23.768v40.06c0,4.871,0.321,8.385,0.965,10.54c0.644,2.156,2.227,3.234,4.746,3.234c2.688,0,4.898-1.05,6.635-3.15
	c1.734-2.099,3.414-4.716,5.039-7.852L622.882,110.003z"/>
<path fill="#010101" d="M681.077,124.953h-45.604v-7.727h2.436c3.246,0,5.612-0.447,7.097-1.344
	c1.482-0.896,2.394-2.155,2.729-3.779c0.336-1.623,0.505-4.002,0.505-7.139V80.021c0-3.471-0.21-5.934-0.631-7.391
	c-0.419-1.455-1.511-2.519-3.274-3.191s-4.718-1.035-8.86-1.092v-7.726l34.434-7.223v51.566c0,4.703,0.588,7.924,1.764,9.659
	c1.176,1.736,4.311,2.603,9.406,2.603V124.953z M671.586,20.56c0,3.359-1.19,6.229-3.569,8.608c-2.381,2.381-5.249,3.57-8.608,3.57
	c-3.305,0-6.173-1.218-8.608-3.654c-2.436-2.435-3.653-5.276-3.653-8.524c0-3.359,1.203-6.242,3.611-8.65
	c2.406-2.407,5.291-3.612,8.65-3.612c3.414,0,6.299,1.176,8.65,3.528C670.411,14.177,671.586,17.089,671.586,20.56"/>
<path fill="#010101" d="M774.111,90.351c0,7.615-1.848,14.25-5.543,19.904c-3.695,5.656-8.692,9.981-14.99,12.976
	c-6.3,2.994-13.201,4.493-20.703,4.493c-7.055,0-13.731-1.373-20.03-4.115c-6.299-2.743-11.451-6.914-15.453-12.514
	c-4.004-5.598-6.005-12.457-6.005-20.576c0-12.149,4.143-21.374,12.43-27.673c8.285-6.299,18.141-9.448,29.562-9.448
	c8.51,0,15.844,1.679,22.004,5.039c6.158,3.359,10.82,7.867,13.984,13.521C772.528,77.614,774.111,83.745,774.111,90.351
	 M750.931,89.847c0-9.518-1.26-16.684-3.779-21.5c-2.52-4.814-7.42-7.223-14.697-7.223c-4.648,0-8.272,1.05-10.876,3.15
	c-2.604,2.099-4.424,5.347-5.459,9.742c-1.037,4.396-1.554,10.093-1.554,17.091c0,8.623,1.146,15.594,3.443,20.912
	c2.295,5.32,7.307,7.978,15.033,7.978c5.094,0,8.972-1.469,11.632-4.409c2.658-2.939,4.367-6.578,5.123-10.918
	C750.553,100.332,750.931,95.39,750.931,89.847"/>
<path fill="#010101" d="M880.267,124.952h-43.504v-7.727c3.303,0,5.669-0.433,7.097-1.301c1.429-0.868,2.31-2.142,2.646-3.822
	c0.336-1.679,0.504-4.451,0.504-8.314V80.02c0-4.758-0.701-8.524-2.1-11.296c-1.4-2.771-4.256-4.157-8.566-4.157
	c-5.879,0-10.262,2.255-13.144,6.761c-2.885,4.508-4.325,9.7-4.325,15.579v18.813c0,4.423,0.643,7.447,1.932,9.07
	c1.287,1.624,4.059,2.435,8.314,2.435v7.727h-44.344v-7.727c3.639,0,6.326-0.321,8.062-0.965c1.734-0.643,2.883-1.791,3.443-3.444
	c0.559-1.651,0.84-4.268,0.84-7.852V77.837c0-3.919-0.756-6.479-2.268-7.685c-1.512-1.203-4.871-1.805-10.078-1.805V60.62
	l32.67-7.223c0.504,3.248,0.756,6.272,0.756,9.071c0,0.728-0.015,1.358-0.042,1.889c-0.029,0.533-0.042,1.134-0.042,1.806
	c3.527-3.751,7.193-6.816,11.002-9.196c3.807-2.379,8.566-3.57,14.277-3.57c4.814,0,9.141,0.869,12.975,2.604
	c3.834,1.736,6.846,4.367,9.029,7.894c2.184,3.528,3.275,7.784,3.275,12.766v28.303c0,4.703,0.63,7.923,1.89,9.658
	c1.26,1.736,4.493,2.603,9.7,2.603V124.952z"/>
<path fill="#010101" d="M135.157,206.019c0,8.229-1.4,15.663-4.199,22.298c-2.801,6.635-6.412,12.164-10.834,16.588
	c-4.424,4.424-9.155,7.754-14.194,9.993c-10.638,4.703-23.656,7.056-39.052,7.056H14.891v-7.728c4.815,0,8.454-0.462,10.918-1.386
	c2.463-0.924,4.074-2.309,4.829-4.157c0.756-1.849,1.134-4.479,1.134-7.896v-71.89c0-4.926-1.008-8.399-3.023-10.413
	c-2.016-2.017-6.635-3.025-13.858-3.025v-7.894l24.44-0.504c0.84,0,4.254-0.055,10.246-0.168c5.99-0.111,9.461-0.168,10.414-0.168
	c9.35,0,17.286,0.504,23.809,1.512c6.522,1.007,12.5,2.632,17.931,4.871c4.983,2.015,9.574,4.829,13.774,8.44
	c4.199,3.611,7.739,7.727,10.624,12.346c2.882,4.619,5.108,9.645,6.676,15.075C134.372,194.402,135.157,200.084,135.157,206.019
	 M107.946,205.515c0-11.813-2.254-21.71-6.761-29.688c-4.508-7.979-10.624-13.506-18.35-16.586
	c-3.36-1.345-6.929-2.198-10.708-2.562c-3.78-0.363-9.197-0.546-16.251-0.546v80.037c0,4.592,0.223,7.937,0.672,10.036
	c0.447,2.1,1.763,3.695,3.947,4.787c2.183,1.092,5.57,1.638,10.162,1.638c13.605,0,23.222-4.759,28.849-14.277
	S107.946,217.89,107.946,205.515"/>
<path fill="#010101" d="M192.938,261.953h-45.603v-7.728h2.435c3.247,0,5.613-0.446,7.097-1.344
	c1.483-0.896,2.394-2.155,2.729-3.779c0.336-1.623,0.504-4.002,0.504-7.139v-24.943c0-3.471-0.21-5.935-0.63-7.392
	c-0.419-1.454-1.511-2.519-3.275-3.19s-4.718-1.034-8.86-1.092v-7.726l34.433-7.224v51.566c0,4.702,0.588,7.924,1.764,9.659
	s4.311,2.603,9.406,2.603V261.953z M183.448,157.56c0,3.358-1.19,6.229-3.569,8.608c-2.381,2.381-5.249,3.57-8.609,3.57
	c-3.304,0-6.173-1.219-8.608-3.654c-2.436-2.436-3.653-5.276-3.653-8.524c0-3.359,1.203-6.242,3.611-8.65
	c2.407-2.407,5.291-3.612,8.65-3.612c3.415,0,6.299,1.176,8.651,3.528C182.272,151.177,183.448,154.089,183.448,157.56"/>
<path fill="#010101" d="M291.136,244.231c0,4.256-0.869,7.881-2.604,10.876c-1.736,2.996-4.073,5.207-7.012,6.635
	c-2.94,1.428-6.257,2.141-9.953,2.141c-4.703,0-8.623-1.105-11.757-3.316c-3.137-2.211-5.012-4.855-5.627-7.936
	c-9.351,7.502-18.758,11.252-28.219,11.252c-6.047,0-11.002-1.469-14.865-4.408c-3.864-2.939-5.795-6.816-5.795-11.633
	c0-3.974,1.035-7.57,3.107-10.791c2.071-3.219,5.109-6.088,9.113-8.608c4.002-2.519,8.776-4.745,14.319-6.677
	s12.457-3.961,20.744-6.09v-4.787c0-3.974-0.938-7.096-2.813-9.363c-1.877-2.268-5.333-3.401-10.373-3.401
	c-4.312,0-7.419,0.896-9.322,2.688c-1.904,1.793-3.164,4.508-3.779,8.147c-0.449,2.575-1.275,4.689-2.478,6.34
	c-1.204,1.652-3.71,2.478-7.516,2.478c-2.352,0-4.424-0.672-6.215-2.017c-1.793-1.342-2.688-3.33-2.688-5.961
	c0-5.209,2.827-9.744,8.483-13.606c5.654-3.863,14.332-5.795,26.035-5.795c12.317,0,20.786,2.071,25.405,6.215
	c4.619,4.144,6.929,9.687,6.929,16.629v26.539c0,3.358,0.084,5.824,0.252,7.392s0.63,2.758,1.386,3.568
	c0.756,0.812,1.944,1.219,3.569,1.219c1.455,0,2.729-0.757,3.821-2.269c1.092-1.513,1.638-3.33,1.638-5.459H291.136z
	 M252.587,244.903v-20.828c-10.639,3.358-17.399,6.649-20.282,9.868c-2.885,3.22-4.325,6.37-4.325,9.447
	c0,2.576,0.783,4.648,2.351,6.216c1.567,1.567,3.779,2.353,6.635,2.353c3.079,0,5.795-0.644,8.146-1.933
	C247.464,248.739,249.955,247.031,252.587,244.903"/>
<path fill="#010101" d="M381.611,197.787c0,2.017-0.546,3.641-1.638,4.871c-1.092,1.233-2.338,1.849-3.737,1.849
	c-1.737,0-3.5-0.756-5.291-2.269c-0.281-0.168-0.743-0.517-1.386-1.049c-0.645-0.531-1.205-0.937-1.68-1.218
	c-0.476-0.278-0.938-0.42-1.386-0.42c-1.624,0-2.996,0.56-4.115,1.681c1.903,2.407,3.373,4.689,4.409,6.844
	c1.036,2.156,1.554,4.912,1.554,8.272c0,4.535-1.022,8.302-3.065,11.296c-2.045,2.996-4.732,5.305-8.063,6.928
	c-3.332,1.625-6.719,2.802-10.162,3.528c-3.443,0.728-7.853,1.456-13.228,2.183c-13.214,1.625-19.82,4.312-19.82,8.063
	c0,1.624,0.993,2.744,2.982,3.359c1.986,0.616,4.94,0.924,8.86,0.924h12.766c4.086,0,8.005,0.21,11.757,0.63
	c3.751,0.42,7.572,1.387,11.464,2.896c3.891,1.513,7.208,3.949,9.952,7.308c2.743,3.358,4.116,7.782,4.116,13.271
	c0,4.086-1.247,8.2-3.738,12.344c-2.492,4.144-6.928,7.656-13.311,10.541c-6.383,2.883-14.978,4.326-25.783,4.326
	c-8.455,0-16.839-1.121-25.154-3.36c-8.314-2.24-12.471-7.251-12.471-15.033c0-2.688,0.797-5.138,2.393-7.349
	c1.596-2.213,4.017-3.317,7.265-3.317c2.631,0,4.73,0.504,6.299,1.513c-1.233,1.959-1.848,4.03-1.848,6.213
	c0,3.64,2.142,6.816,6.425,9.533c4.283,2.715,10.735,4.073,19.358,4.073c8.678,0,15.523-1.247,20.534-3.737
	c5.011-2.492,7.517-5.781,7.517-9.869c0-2.912-1.079-5.095-3.233-6.55c-2.157-1.456-5.236-2.394-9.239-2.813
	c-4.004-0.42-10.233-0.687-18.686-0.799c-10.246-0.111-18.309-1.231-24.188-3.358c-5.879-2.128-8.818-6.635-8.818-13.521
	c0-5.824,2.184-10.051,6.551-12.683c4.367-2.631,9.742-4.647,16.125-6.047c-15.006-2.854-22.508-9.91-22.508-21.164
	c0-3.64,0.993-7.392,2.981-11.254c1.987-3.863,5.543-7.166,10.666-9.91c5.123-2.743,11.995-4.114,20.619-4.114
	c11.029,0,19.511,2.575,25.447,7.726c3.527-5.039,8.033-7.558,13.521-7.558c2.856,0,5.067,0.713,6.635,2.141
	C380.826,194.135,381.611,195.828,381.611,197.787 M347.177,215.341c0-4.758-1.064-8.901-3.191-12.431
	c-2.129-3.526-5.459-5.291-9.995-5.291c-4.927,0-8.398,1.639-10.414,4.914c-2.015,3.275-3.023,7.209-3.023,11.8
	c0,4.592,0.937,8.805,2.813,12.64c1.875,3.836,5.417,5.753,10.624,5.753c3.919,0,7.097-1.497,9.533-4.493
	C345.958,225.238,347.177,220.941,347.177,215.341"/>
<path fill="#010101" d="M484.32,261.952h-43.504v-7.728c3.303,0,5.67-0.433,7.098-1.301c1.427-0.867,2.309-2.142,2.645-3.822
	c0.336-1.678,0.504-4.45,0.504-8.313V217.02c0-4.758-0.701-8.523-2.1-11.295c-1.4-2.771-4.256-4.157-8.565-4.157
	c-5.879,0-10.261,2.255-13.144,6.761c-2.884,4.508-4.325,9.7-4.325,15.579v18.813c0,4.422,0.643,7.446,1.932,9.069
	c1.287,1.624,4.058,2.435,8.314,2.435v7.728H388.83v-7.728c3.639,0,6.326-0.32,8.063-0.965c1.735-0.643,2.883-1.791,3.443-3.443
	c0.559-1.651,0.84-4.268,0.84-7.852v-27.128c0-3.919-0.756-6.479-2.268-7.685c-1.511-1.203-4.871-1.805-10.078-1.805v-7.728
	l32.67-7.224c0.504,3.248,0.756,6.272,0.756,9.072c0,0.728-0.015,1.357-0.042,1.889c-0.029,0.533-0.042,1.134-0.042,1.806
	c3.527-3.751,7.194-6.815,11.002-9.196c3.807-2.379,8.566-3.57,14.277-3.57c4.814,0,9.14,0.869,12.977,2.604
	c3.834,1.736,6.844,4.367,9.027,7.894c2.184,3.529,3.275,7.785,3.275,12.767v28.304c0,4.702,0.631,7.922,1.891,9.657
	c1.26,1.736,4.492,2.603,9.699,2.603V261.952z"/>
<path fill="#010101" d="M573.767,227.351c0,7.615-1.848,14.25-5.543,19.904c-3.695,5.655-8.692,9.981-14.99,12.976
	c-6.3,2.994-13.201,4.493-20.703,4.493c-7.055,0-13.731-1.373-20.03-4.114c-6.299-2.744-11.451-6.914-15.453-12.515
	c-4.004-5.599-6.005-12.457-6.005-20.576c0-12.149,4.143-21.374,12.43-27.673c8.285-6.299,18.141-9.448,29.562-9.448
	c8.51,0,15.844,1.679,22.004,5.039c6.158,3.359,10.82,7.867,13.983,13.521C572.184,214.613,573.767,220.744,573.767,227.351
	 M550.587,226.847c0-9.519-1.26-16.685-3.779-21.5c-2.52-4.813-7.42-7.224-14.697-7.224c-4.648,0-8.272,1.051-10.877,3.15
	c-2.603,2.1-4.423,5.348-5.459,9.742c-1.036,4.396-1.553,10.094-1.553,17.091c0,8.623,1.146,15.595,3.443,20.912
	c2.295,5.32,7.307,7.978,15.033,7.978c5.094,0,8.972-1.469,11.632-4.408c2.658-2.939,4.367-6.578,5.123-10.918
	C550.209,237.332,550.587,232.39,550.587,226.847"/>
<path fill="#010101" d="M657.667,241.964c0,4.815-1.442,8.931-4.325,12.347c-2.885,3.416-6.832,6.004-11.842,7.768
	c-5.012,1.764-10.792,2.646-17.343,2.646c-4.424,0-8.875-0.435-13.354-1.302c-4.48-0.869-8.398-2.169-11.758-3.904l-3.275,4.702
	h-6.551l-0.84-21.836h7.055c1.23,3.752,4.059,7.125,8.482,10.12c4.422,2.996,10.834,4.493,19.232,4.493
	c2.127,0,4.422-0.153,6.887-0.462c2.463-0.307,4.829-1.161,7.097-2.562c2.268-1.399,3.401-3.555,3.401-6.467
	c0-2.521-1.163-4.353-3.485-5.501c-2.324-1.146-6.677-2.533-13.06-4.157c-7.727-1.959-14.055-3.821-18.98-5.585
	c-4.928-1.764-9.1-4.297-12.514-7.601c-3.416-3.304-5.123-7.558-5.123-12.765c0-6.606,3.036-11.843,9.112-15.705
	c6.074-3.864,14.038-5.795,23.894-5.795c6.158,0,11.086,0.502,14.781,1.51c3.695,1.009,6.803,2.101,9.322,3.277l2.016-4.285h6.719
	v19.485h-6.887c-0.617-2.295-2.016-4.396-4.199-6.299s-5.081-3.373-8.691-4.409c-3.612-1.035-7.799-1.554-12.557-1.554
	c-3.92,0-7.825,0.42-11.716,1.26c-3.894,0.84-5.837,2.828-5.837,5.963c0,1.288,0.378,2.351,1.134,3.191
	c0.756,0.84,2.058,1.625,3.905,2.352c1.848,0.729,5.094,1.679,9.742,2.855c4.646,1.176,7.418,1.877,8.314,2.1
	c9.125,2.296,16.614,5.123,22.466,8.482C654.741,227.688,657.667,233.566,657.667,241.964"/>
<path fill="#010101" d="M726.155,247.003c-3.023,6.328-6.551,10.863-10.582,13.604c-4.031,2.744-8.764,4.117-14.193,4.117
	c-6.607,0-11.479-1.345-14.613-4.033c-3.137-2.687-5.068-5.695-5.795-9.027c-0.729-3.33-1.092-7.068-1.092-11.212v-39.556h-12.682
	v-7.728c5.318,0,9.937-1.008,13.857-3.022c3.918-2.017,7.013-4.731,9.28-8.147c2.268-3.414,3.708-7.082,4.325-11.002h6.887v22.172
	h23.768v7.728h-23.768v40.06c0,4.871,0.321,8.385,0.966,10.54c0.643,2.156,2.226,3.234,4.745,3.234c2.688,0,4.898-1.051,6.635-3.15
	c1.734-2.1,3.414-4.716,5.039-7.852L726.155,247.003z"/>
<path fill="#010101" d="M781.769,261.953h-45.604v-7.728h2.436c3.246,0,5.612-0.446,7.097-1.344
	c1.482-0.896,2.394-2.155,2.729-3.779c0.336-1.623,0.504-4.002,0.504-7.139v-24.943c0-3.471-0.21-5.935-0.631-7.392
	c-0.419-1.454-1.511-2.519-3.274-3.19s-4.718-1.034-8.86-1.092v-7.726l34.434-7.224v51.566c0,4.702,0.588,7.924,1.764,9.659
	s4.311,2.603,9.406,2.603V261.953z M772.279,157.56c0,3.358-1.19,6.229-3.569,8.608c-2.381,2.381-5.249,3.57-8.608,3.57
	c-3.305,0-6.173-1.219-8.608-3.654s-3.653-5.276-3.653-8.524c0-3.359,1.203-6.242,3.611-8.65c2.406-2.407,5.291-3.612,8.65-3.612
	c3.414,0,6.299,1.176,8.65,3.528C771.103,151.177,772.279,154.089,772.279,157.56"/>
<path fill="#010101" d="M864.286,244.903c-6.775,13.214-17.666,19.819-32.67,19.819c-7,0-13.62-1.426-19.862-4.282
	c-6.244-2.854-11.254-6.998-15.033-12.431c-3.779-5.43-5.669-11.785-5.669-19.063c0-5.039,1.021-9.854,3.065-14.444
	c2.043-4.592,4.997-8.736,8.859-12.431c3.864-3.694,8.441-6.563,13.732-8.608c5.291-2.043,10.96-3.065,17.007-3.065
	c7.727,0,14.529,1.526,20.408,4.577c5.879,3.053,8.818,7.265,8.818,12.64c0,2.464-0.925,4.563-2.771,6.299
	c-1.848,1.736-3.977,2.603-6.383,2.603c-2.297,0-4.062-0.53-5.291-1.594c-1.232-1.063-2.045-2.156-2.437-3.276
	c-0.392-1.119-0.952-3.107-1.679-5.964c-0.729-2.741-1.932-4.688-3.612-5.836c-1.679-1.147-4.03-1.722-7.054-1.722
	c-5.096,0-9.616,1.89-13.563,5.669s-5.921,10.848-5.921,21.206c0,5.544,0.798,10.638,2.394,15.285s4.115,8.329,7.559,11.044
	c3.443,2.717,7.655,4.073,12.64,4.073c5.543,0,9.77-1.371,12.682-4.115c2.91-2.743,5.486-5.963,7.727-9.657L864.286,244.903z"/>
</svg>
