<?xml version="1.0" encoding="utf-8"?>
<!-- Generator: Adobe Illustrator 16.0.0, SVG Export Plug-In . SVG Version: 6.00 Build 0)  -->
<!DOCTYPE svg PUBLIC "-//W3C//DTD SVG 1.1//EN" "http://www.w3.org/Graphics/SVG/1.1/DTD/svg11.dtd">
<svg version="1.1" id="Layer_1" xmlns="http://www.w3.org/2000/svg" xmlns:xlink="http://www.w3.org/1999/xlink" x="0px" y="0px"
	 width="30px" height="30px" viewBox="0 0 30 30" enable-background="new 0 0 30 30" xml:space="preserve">
<rect fill="#FFFFFF" width="30" height="30"/>
<g>
	<defs>
		<rect id="SVGID_1_" width="30" height="30"/>
	</defs>
	<clipPath id="SVGID_2_">
		<use xlink:href="#SVGID_1_"  overflow="visible"/>
	</clipPath>
	<path clip-path="url(#SVGID_2_)" d="M4.856,9.85h4.352v13.978H4.856V9.85z M7.034,2.9c1.391,0,2.52,1.129,2.52,2.518
		c0,1.391-1.129,2.52-2.52,2.52c-1.396,0-2.522-1.129-2.522-2.52C4.512,4.029,5.638,2.9,7.034,2.9"/>
	<path clip-path="url(#SVGID_2_)" d="M11.936,9.849h4.167v1.91h0.061c0.58-1.099,1.999-2.258,4.114-2.258
		c4.397,0,5.212,2.894,5.212,6.659v7.667h-4.345V17.03c0-1.621-0.03-3.706-2.26-3.706c-2.262,0-2.606,1.765-2.606,3.588v6.915
		h-4.342V9.849z"/>
</g>
</svg>
