<?xml version="1.0" encoding="utf-8"?>
<!-- Generator: Adobe Illustrator 16.0.0, SVG Export Plug-In . SVG Version: 6.00 Build 0)  -->
<!DOCTYPE svg PUBLIC "-//W3C//DTD SVG 1.1//EN" "http://www.w3.org/Graphics/SVG/1.1/DTD/svg11.dtd">
<svg version="1.1" id="Layer_1" xmlns="http://www.w3.org/2000/svg" xmlns:xlink="http://www.w3.org/1999/xlink" x="0px" y="0px"
	 width="74.998px" height="119.998px" viewBox="0 0 74.998 119.998" enable-background="new 0 0 74.998 119.998"
	 xml:space="preserve">
<g>
	<defs>
		<rect id="SVGID_1_" x="-514.393" y="-434.925" width="1400" height="999.999"/>
	</defs>
	<clipPath id="SVGID_2_">
		<use xlink:href="#SVGID_1_"  overflow="visible"/>
	</clipPath>
	<path clip-path="url(#SVGID_2_)" fill="#FFFFFF" d="M37.336,19.18c-10.175,0-18.455,8.279-18.455,18.455
		c0,10.176,8.28,18.455,18.455,18.455c10.176,0,18.456-8.279,18.456-18.455C55.792,27.459,47.512,19.18,37.336,19.18 M37.336,52.09
		c-7.97,0-14.455-6.484-14.455-14.455S29.366,23.18,37.336,23.18c7.971,0,14.456,6.484,14.456,14.455S45.307,52.09,37.336,52.09
		 M37.336,0.299C16.749,0.299,0,17.047,0,37.635c0,5.607,1.215,11.002,3.631,16.074c0.096,0.201,24.455,48.795,31.917,63.684
		c0.339,0.678,1.032,1.105,1.788,1.105c0.757,0,1.45-0.428,1.789-1.105l31.651-63.135c0.024-0.049,0.047-0.1,0.067-0.15
		c2.542-5.158,3.831-10.699,3.831-16.473C74.674,17.047,57.924,0.299,37.336,0.299 M67.19,52.471
		c-0.022,0.045-0.043,0.09-0.062,0.137l-29.792,59.428C30.649,98.691,7.502,52.514,7.225,51.953C5.085,47.461,4,42.643,4,37.635
		C4,19.254,18.955,4.299,37.336,4.299c18.383,0,33.338,14.955,33.338,33.335C70.674,42.838,69.503,47.828,67.19,52.471"/>
</g>
</svg>
