<?xml version="1.0" encoding="utf-8"?>
<!-- Generator: Adobe Illustrator 16.0.0, SVG Export Plug-In . SVG Version: 6.00 Build 0)  -->
<!DOCTYPE svg PUBLIC "-//W3C//DTD SVG 1.1//EN" "http://www.w3.org/Graphics/SVG/1.1/DTD/svg11.dtd">
<svg version="1.1" id="Layer_1" xmlns="http://www.w3.org/2000/svg" xmlns:xlink="http://www.w3.org/1999/xlink" x="0px" y="0px"
	 width="30px" height="30px" viewBox="0 0 30 30" enable-background="new 0 0 30 30" xml:space="preserve">
<rect fill="#FFFFFF" width="30" height="30"/>
<g>
	<defs>
		<rect id="SVGID_1_" width="30" height="30"/>
	</defs>
	<clipPath id="SVGID_2_">
		<use xlink:href="#SVGID_1_"  overflow="visible"/>
	</clipPath>
	<path clip-path="url(#SVGID_2_)" d="M26.442,8.386c-0.842,0.373-1.747,0.626-2.696,0.739c0.969-0.581,1.713-1.501,2.064-2.597
		c-0.908,0.538-1.912,0.929-2.982,1.139c-0.855-0.913-2.076-1.483-3.427-1.483c-2.592,0-4.695,2.102-4.695,4.695
		c0,0.368,0.042,0.727,0.122,1.07c-3.902-0.196-7.362-2.065-9.678-4.905c-0.403,0.693-0.635,1.5-0.635,2.36
		c0,1.629,0.829,3.066,2.089,3.908c-0.77-0.024-1.494-0.236-2.127-0.587c0,0.019,0,0.039,0,0.059c0,2.275,1.618,4.172,3.766,4.604
		c-0.394,0.106-0.809,0.164-1.237,0.164c-0.303,0-0.597-0.029-0.883-0.084c0.597,1.864,2.331,3.223,4.385,3.261
		c-1.607,1.259-3.631,2.01-5.831,2.01c-0.379,0-0.752-0.022-1.119-0.065c2.077,1.332,4.545,2.108,7.196,2.108
		c8.636,0,13.359-7.154,13.359-13.358c0-0.204-0.004-0.406-0.014-0.608C25.018,10.154,25.813,9.328,26.442,8.386"/>
</g>
</svg>
